<?xml version="1.0" encoding="utf-8"?>
<!-- Generator: Adobe Illustrator 19.0.0, SVG Export Plug-In . SVG Version: 6.00 Build 0)  -->
<svg version="1.1" id="Layer_1" xmlns="http://www.w3.org/2000/svg" xmlns:xlink="http://www.w3.org/1999/xlink" x="0px" y="0px"
	 viewBox="-250 347 110 100" style="enable-background:new -250 347 110 100;" xml:space="preserve">
<style type="text/css">
	.st0{fill:none;stroke:#8B93A3;stroke-width:2.5;stroke-linecap:round;stroke-linejoin:round;stroke-miterlimit:10;}
</style>
<g>
	<g id="XMLID_124_">
		<polyline id="XMLID_123_" class="st0" points="-182.9,375 -182.9,364.2 -163.4,375.4 -163.6,398.3 -143.2,387.5 -143.4,364.8 
			-162.9,353.4 -182.9,364.2 		"/>
		<line id="XMLID_122_" class="st0" x1="-144.3" y1="364.6" x2="-163.4" y2="375.4"/>
	</g>
	<g id="XMLID_1_">
		<polyline id="XMLID_5_" class="st0" points="-181.5,401 -172,406 -191,418 -211.1,407.1 -211.2,430.1 -191.1,440.6 -171.9,428.8 
			-172,406 		"/>
		<line id="XMLID_4_" class="st0" x1="-190.5" y1="439.9" x2="-191" y2="418"/>
	</g>
	<g id="XMLID_128_">
		<polyline id="XMLID_130_" class="st0" points="-207.1,375 -207.1,364.2 -226.6,375.4 -226.4,398.3 -246.8,387.5 -246.6,364.8 
			-227.1,353.4 -207.1,364.2 		"/>
		<line id="XMLID_129_" class="st0" x1="-245.7" y1="364.6" x2="-226.6" y2="375.4"/>
	</g>
	<line id="XMLID_121_" class="st0" x1="-205" y1="388.9" x2="-185.6" y2="388.9"/>
	<path id="XMLID_2_" class="st0" d="M-199.4,384.7c-1.3-1.6-3.2-2.5-5.4-2.5h-8.2c-3.9,0-7,3.1-7,7l0,0c0,3.9,3.1,7,7,7h8.3
		c2.2,0,4.2-1.1,5.6-2.7"/>
	<path id="XMLID_3_" class="st0" d="M-191.3,384.7c1.3-1.6,3.2-2.5,5.4-2.5h8.3c3.9,0,7,3.1,7,7l0,0c0,3.9-3.1,7-7,7h-8.3
		c-2.2,0-4.2-1.1-5.6-2.7"/>
	<path class="st0" d="M-211.1,407.1"/>
</g>
</svg>
